<svg xmlns="http://www.w3.org/2000/svg" version="1.1" xmlns:xlink="http://www.w3.org/1999/xlink" xmlns:svgjs="http://svgjs.com/svgjs" x="0" y="0" viewBox="0 0 512 512" style="enable-background:new 0 0 512 512" xml:space="preserve" class=""><g><circle cx="256" cy="256" r="256" fill="#ff4747" data-original="#5f98d1" class="" opacity="1"></circle><path fill="#ffffff" fill-rule="evenodd" d="M302.728 236.559V361.6a7.032 7.032 0 0 1-14.063 0V236.559a7.032 7.032 0 0 1 14.063 0zm-39.7 0V361.6a7.032 7.032 0 0 1-14.063 0V236.559a7.032 7.032 0 0 1 14.063 0zm-39.7 0V361.6a7.031 7.031 0 1 1-14.062 0V236.559a7.031 7.031 0 0 1 14.062 0zm122.316-43.388h-179.3a17.779 17.779 0 0 1 0-35.558h179.3a17.78 17.78 0 0 1 0 35.559zm-25.43 198.767a18.415 18.415 0 0 0 18.4-18.393V207.232H173.382v166.313a18.414 18.414 0 0 0 18.4 18.393zm-66.201-271.875c18.129 0 34.43 9.538 41.5 23.487H212.5c7.048-13.977 23.267-23.487 41.513-23.487zm123.476 55.328a31.879 31.879 0 0 0-31.841-31.841h-34.916a53.387 53.387 0 0 0-19.84-26.064A63.211 63.211 0 0 0 254.013 106a63.981 63.981 0 0 0-37.319 11.8 53.36 53.36 0 0 0-19.412 25.748h-30.931a31.839 31.839 0 0 0-7.032 62.892v167.1A32.494 32.494 0 0 0 191.78 406h128.439a32.494 32.494 0 0 0 32.46-32.455v-167.1a31.89 31.89 0 0 0 24.81-31.054z" data-original="#ffffff"></path></g></svg>