<svg xmlns="http://www.w3.org/2000/svg" viewBox="0 0 512 512" width="512" height="512" style="enable-background:new 0 0 512 512">
  <g style="" transform="matrix(0.838028, 0, 0, 0.838028, 41.46479, 41.464779)">
    <path d="M463.624 48.374c-64.199-64.499-168.9-64.499-233.099 0-44.101 43.801-59.401 108.602-40.201 167.401C122.525 283.275 72.001 333.8 4.501 401.6 1.5 404.299 0 408.199 0 412.099V497c0 4.199 1.5 7.798 4.501 10.499C7.2 510.499 10.8 512 15 512h84.901c3.9 0 7.8-1.501 10.499-4.501 7.8-7.5 13.5-13.5 21.301-21 3.3-3.3 4.799-7.8 4.2-12.299-.901-8.401-1.8-14.7-2.701-22.8 11.4-1.199 20.099-2.1 31.8-2.999 7.2-.901 12.599-6.301 13.5-13.5.899-11.4 1.8-20.4 2.999-31.8 8.101 1.199 14.401 1.8 22.8 2.699 8.401 1.201 16.5-5.7 16.5-14.7V363H248.4c3.9 0 7.798-1 10.499-4.001 13.801-13.799 23.525-23.224 37.326-37.323 58.799 19.199 123.6 3.9 167.399-40.201 64.501-64.201 64.501-168.9 0-233.101zm-42.299 105.901c-17.401 17.701-46.201 17.701-63.6 0-17.701-17.401-17.701-46.199 0-63.6 17.399-17.701 46.199-17.701 63.6 0 17.699 17.401 17.699 46.2 0 63.6z" style="" fill="#fcbf29" data-original="#fcbf29"/>
    <path d="M463.624 281.475c-43.799 44.101-108.6 59.399-167.399 40.201-13.801 14.099-23.525 23.525-37.326 37.323-2.7 3.001-6.598 4.001-10.498 4.001H220.8v28.099c0 9-8.099 15.901-16.5 14.7-8.399-.899-14.7-1.5-22.8-2.699-1.199 11.4-2.1 20.4-2.999 31.8-.901 7.2-6.301 12.599-13.5 13.5-11.7.899-20.4 1.8-31.8 2.999.901 8.101 1.8 14.399 2.701 22.8.599 4.499-.901 9-4.2 12.299-7.8 7.5-13.5 13.5-21.301 21-2.699 2.999-6.599 4.501-10.499 4.501H15c-4.2 0-7.8-1.501-10.499-4.501l353.225-353.224c17.399 17.701 46.199 17.701 63.6 0 17.699-17.401 17.699-46.199 0-63.6l42.299-42.301c64.5 64.202 64.5 168.901-.001 233.102z" fill="#fe9923" data-original="#fe9923"/>
  </g>
</svg>
