<svg xmlns="http://www.w3.org/2000/svg" version="1.1" xmlns:xlink="http://www.w3.org/1999/xlink" xmlns:svgjs="http://svgjs.com/svgjs" x="0" y="0" viewBox="0 0 512 512" style="enable-background:new 0 0 512 512" xml:space="preserve" class=""><g><path d="M506.141 477.851 361.689 333.399c65.814-80.075 61.336-198.944-13.451-273.73-79.559-79.559-209.01-79.559-288.569 0s-79.559 209.01 0 288.569c74.766 74.766 193.62 79.293 273.73 13.451l144.452 144.452c7.812 7.812 20.477 7.812 28.289 0 7.813-7.813 7.813-20.478.001-28.29zM319.949 319.948c-63.96 63.96-168.03 63.959-231.99 0-63.96-63.96-63.96-168.03 0-231.99 63.958-63.957 168.028-63.962 231.99 0 63.96 63.96 63.96 168.03 0 231.99z" fill="#ffffff" data-original="#000000" class=""></path><path d="M301.897 183.949h-77.94v-77.94c0-11.048-8.956-20.004-20.004-20.004-11.048 0-20.004 8.956-20.004 20.004v77.94h-77.94c-11.048 0-20.004 8.956-20.004 20.004 0 11.048 8.956 20.004 20.004 20.004h77.94v77.94c0 11.048 8.956 20.004 20.004 20.004 11.048 0 20.004-8.956 20.004-20.004v-77.94h77.94c11.048 0 20.004-8.956 20.004-20.004 0-11.048-8.956-20.004-20.004-20.004z" fill="#ffffff" data-original="#000000" class=""></path></g></svg>