<svg xmlns="http://www.w3.org/2000/svg" version="1.1" xmlns:xlink="http://www.w3.org/1999/xlink" xmlns:svgjs="http://svgjs.com/svgjs" x="0" y="0" viewBox="0 0 24 24" style="enable-background:new 0 0 512 512" xml:space="preserve" class=""><g><path fill="white" d="M5.5 20a2.5 2.5 0 1 1 5 0 2.5 2.5 0 0 1-5 0zM8 14.5a2.5 2.5 0 1 0 0-5 2.5 2.5 0 0 0 0 5zm0-8a2.5 2.5 0 1 0 0-5 2.5 2.5 0 0 0 0 5zm8 16a2.5 2.5 0 1 0 0-5 2.5 2.5 0 0 0 0 5zm0-16a2.5 2.5 0 1 0 0-5 2.5 2.5 0 0 0 0 5zm0 8a2.5 2.5 0 1 0 0-5 2.5 2.5 0 0 0 0 5z" data-original="#3b82f6" class=""></path></g></svg>