<svg xmlns="http://www.w3.org/2000/svg" version="1.1" xmlns:xlink="http://www.w3.org/1999/xlink" xmlns:svgjs="http://svgjs.com/svgjs" x="0" y="0" viewBox="0 0 391.545 391" style="enable-background:new 0 0 512 512" xml:space="preserve" class=""><g><path fill="white" d="M381.293 22.266c13.668 13.664 13.668 35.824 0 49.488l-17.68 17.68-61.23-61.23 17.68-17.68c13.667-13.669 35.832-13.669 49.5 0zm0 0" data-original="#00acea" class=""></path><path fill="white" d="m363.613 89.434-160.152 160.16h-.008l-61.23-61.23 160.16-160.16zm0 0" data-original="#00efd1" class=""></path><path fill="white" d="m142.223 188.363 61.23 61.23-.57.571-84.692 23.461 23.461-84.691zm0 0" data-original="#fedb41" class=""></path><path fill="white" d="M330.59 389.777H50c-27.602-.03-49.969-22.398-50-50V79.184c.031-27.602 22.398-49.97 50-50h88.79c5.523 0 10 4.476 10 10 0 5.523-4.477 10-10 10H50c-16.563.02-29.98 13.441-30 30v260.593c.02 16.559 13.438 29.98 30 30h280.59c16.562-.02 29.98-13.441 30-30v-88.793c0-5.523 4.476-10 10-10 5.523 0 10 4.477 10 10v88.793c-.031 27.602-22.399 49.97-50 50zm0 0" data-original="#00acea" class=""></path></g></svg>