<svg xmlns="http://www.w3.org/2000/svg" version="1.1" xmlns:xlink="http://www.w3.org/1999/xlink" xmlns:svgjs="http://svgjs.com/svgjs" x="0" y="0" viewBox="0 0 512 512" style="enable-background:new 0 0 512 512" xml:space="preserve" class=""><g><path fill="#cfd8dc" d="M448 0H64C28.715 0 0 28.715 0 64v341.332c0 35.285 28.715 64 64 64h384c35.285 0 64-28.715 64-64V64c0-35.285-28.715-64-64-64zm0 0" data-original="#cfd8dc"></path><path fill="#2196f3" d="M64 0h384c35.348 0 64 28.652 64 64v74.668H0V64C0 28.652 28.652 0 64 0zm0 0" data-original="#2196f3" class=""></path><g fill="#fff"><path d="M277.332 181.332H352v53.336h-74.668zM160 181.332h74.668v53.336H160zM42.668 181.332h74.664v53.336H42.668zM42.668 277.332h74.664v53.336H42.668zM160 277.332h74.668v53.336H160zM160 373.332h74.668v53.336H160zM277.332 373.332H352v53.336h-74.668zM277.332 277.332H352v53.336h-74.668zM394.668 277.332h74.664v53.336h-74.664zM394.668 181.332h74.664v53.336h-74.664zM42.668 405.332v-32h74.664v53.336H64c-11.754 0-21.332-9.578-21.332-21.336zM448 426.668h-53.332v-53.336h74.664v32c0 11.758-9.578 21.336-21.332 21.336zm0 0" fill="#ffffff" data-original="#ffffff"></path></g></g></svg>
